# xmcd CD database file
#
# Track frame offsets:
#	150
#	12170
#	23442
#	35172
#	48960
#	62870
#	76590
#	90610
#	101400
#	116655
#	132690
#	145160
#	156907
#	168822
#	181547
#	195785
#	208917
#	223402
#
# Disc length: 3168 seconds
#
# Revision: 0
# Processed by: cddbd v1.5.2PL0 Copyright (c) Steve Scherf et al.
# Submitted via: CDex 1.70beta2
#
DISCID=ed0c5e12
DTITLE=Louis Armstrong - masters of jazz
DYEAR=2001
DGENRE=Jazz
TTITLE0=jeepers creepers
TTITLE1=love walked in
TTITLE2=alexander rag time band
TTITLE3=red sails in the sunset
TTITLE4=sweet as a song
TTITLE5=all of me
TTITLE6=what is that thing called swing
TTITLE7=the old folks at home
TTITLE8=hear me talking to ya
TTITLE9=i can't give you anything but love, baby
TTITLE10=johah and the whale
TTITLE11=jubille
TTITLE12=thanks a million
TTITLE13=shadrack
TTITLE14=public melody number one
TTITLE15=i've got a pocketful of dreams
TTITLE16=once in a while
TTITLE17=the sing ended
EXTD=YEAR: 2001
EXTT0=
EXTT1=
EXTT2=
EXTT3=
EXTT4=
EXTT5=
EXTT6=
EXTT7=
EXTT8=
EXTT9=
EXTT10=
EXTT11=
EXTT12=
EXTT13=
EXTT14=
EXTT15=
EXTT16=
EXTT17=
PLAYORDER=
